<?xml version="1.0" encoding="UTF-8"?>
<svg xmlns="http://www.w3.org/2000/svg" version="1.1" width="500" height="500" viewBox="0 0 500 500"><rect x="0" y="0" width="500" height="500" fill="#ffffff"/><g transform="scale(15.152)"><g transform="translate(0,0)"><path fill-rule="evenodd" d="M10 0L10 2L11 2L11 0ZM12 0L12 1L13 1L13 2L12 2L12 4L13 4L13 3L14 3L14 4L15 4L15 5L17 5L17 6L16 6L16 8L17 8L17 6L18 6L18 7L19 7L19 8L20 8L20 9L18 9L18 10L17 10L17 12L16 12L16 9L12 9L12 7L13 7L13 5L11 5L11 6L10 6L10 4L11 4L11 3L8 3L8 4L9 4L9 5L8 5L8 7L9 7L9 8L6 8L6 9L5 9L5 8L0 8L0 10L1 10L1 11L0 11L0 12L1 12L1 13L0 13L0 14L1 14L1 15L3 15L3 14L1 14L1 13L4 13L4 16L5 16L5 13L9 13L9 14L10 14L10 13L11 13L11 12L9 12L9 11L8 11L8 10L9 10L9 9L10 9L10 11L11 11L11 9L12 9L12 10L13 10L13 11L12 11L12 13L13 13L13 12L14 12L14 13L15 13L15 14L17 14L17 15L16 15L16 16L15 16L15 15L14 15L14 16L15 16L15 17L12 17L12 15L13 15L13 14L11 14L11 15L9 15L9 16L11 16L11 17L12 17L12 18L13 18L13 19L12 19L12 21L13 21L13 20L14 20L14 21L18 21L18 22L17 22L17 23L16 23L16 22L15 22L15 23L14 23L14 24L15 24L15 25L12 25L12 23L13 23L13 22L11 22L11 21L10 21L10 22L11 22L11 24L10 24L10 23L7 23L7 22L8 22L8 20L6 20L6 19L7 19L7 18L6 18L6 17L7 17L7 16L6 16L6 17L3 17L3 16L0 16L0 17L1 17L1 18L0 18L0 19L1 19L1 21L0 21L0 25L1 25L1 21L2 21L2 23L3 23L3 21L2 21L2 19L3 19L3 20L5 20L5 21L7 21L7 22L6 22L6 23L4 23L4 25L7 25L7 24L8 24L8 27L9 27L9 28L8 28L8 33L9 33L9 31L11 31L11 32L10 32L10 33L12 33L12 31L13 31L13 30L9 30L9 28L10 28L10 29L11 29L11 28L10 28L10 27L11 27L11 26L9 26L9 24L10 24L10 25L12 25L12 26L13 26L13 27L12 27L12 29L13 29L13 28L14 28L14 29L15 29L15 31L14 31L14 32L15 32L15 33L16 33L16 32L21 32L21 33L22 33L22 32L21 32L21 30L22 30L22 31L23 31L23 32L26 32L26 33L27 33L27 32L26 32L26 31L27 31L27 29L28 29L28 30L29 30L29 31L28 31L28 32L29 32L29 33L30 33L30 32L31 32L31 33L32 33L32 32L33 32L33 31L30 31L30 30L32 30L32 29L33 29L33 27L32 27L32 26L31 26L31 25L30 25L30 23L29 23L29 22L28 22L28 23L29 23L29 24L27 24L27 23L26 23L26 22L27 22L27 20L28 20L28 21L29 21L29 20L28 20L28 19L30 19L30 18L31 18L31 17L32 17L32 16L33 16L33 15L32 15L32 14L31 14L31 13L32 13L32 12L33 12L33 11L32 11L32 10L31 10L31 9L32 9L32 8L31 8L31 9L30 9L30 8L29 8L29 9L28 9L28 8L27 8L27 9L26 9L26 8L24 8L24 7L25 7L25 4L23 4L23 3L24 3L24 2L25 2L25 1L24 1L24 0L19 0L19 1L22 1L22 2L23 2L23 3L21 3L21 2L18 2L18 1L16 1L16 0ZM8 1L8 2L9 2L9 1ZM14 2L14 3L15 3L15 2ZM16 2L16 4L17 4L17 5L18 5L18 6L19 6L19 7L20 7L20 8L21 8L21 9L22 9L22 8L23 8L23 9L24 9L24 10L26 10L26 11L25 11L25 12L23 12L23 15L24 15L24 16L21 16L21 15L22 15L22 14L21 14L21 13L22 13L22 11L23 11L23 10L20 10L20 12L19 12L19 13L20 13L20 14L21 14L21 15L20 15L20 16L19 16L19 14L18 14L18 12L17 12L17 14L18 14L18 15L17 15L17 18L16 18L16 17L15 17L15 19L14 19L14 20L16 20L16 19L17 19L17 20L18 20L18 19L20 19L20 18L21 18L21 19L22 19L22 20L23 20L23 21L25 21L25 22L26 22L26 21L25 21L25 20L26 20L26 19L27 19L27 18L28 18L28 17L27 17L27 16L30 16L30 17L29 17L29 18L30 18L30 17L31 17L31 16L30 16L30 15L31 15L31 14L30 14L30 15L27 15L27 14L26 14L26 13L25 13L25 12L26 12L26 11L27 11L27 13L28 13L28 14L29 14L29 13L30 13L30 11L31 11L31 10L30 10L30 11L27 11L27 10L28 10L28 9L27 9L27 10L26 10L26 9L24 9L24 8L23 8L23 7L24 7L24 5L20 5L20 6L19 6L19 4L20 4L20 3L19 3L19 4L18 4L18 3L17 3L17 2ZM9 6L9 7L10 7L10 6ZM11 6L11 7L12 7L12 6ZM14 6L14 8L15 8L15 6ZM20 6L20 7L21 7L21 6ZM22 6L22 7L23 7L23 6ZM10 8L10 9L11 9L11 8ZM1 9L1 10L3 10L3 12L7 12L7 11L4 11L4 9ZM6 9L6 10L8 10L8 9ZM18 10L18 11L19 11L19 10ZM1 11L1 12L2 12L2 11ZM14 11L14 12L15 12L15 11ZM6 14L6 15L7 15L7 14ZM24 14L24 15L26 15L26 16L24 16L24 18L22 18L22 17L21 17L21 16L20 16L20 17L19 17L19 18L20 18L20 17L21 17L21 18L22 18L22 19L23 19L23 20L24 20L24 19L26 19L26 16L27 16L27 15L26 15L26 14ZM2 17L2 18L3 18L3 19L4 19L4 18L3 18L3 17ZM8 17L8 19L9 19L9 20L11 20L11 18L10 18L10 19L9 19L9 17ZM17 18L17 19L18 19L18 18ZM32 18L32 20L31 20L31 21L30 21L30 22L31 22L31 24L33 24L33 23L32 23L32 22L33 22L33 21L32 21L32 20L33 20L33 18ZM19 20L19 22L18 22L18 23L20 23L20 22L21 22L21 23L22 23L22 24L19 24L19 26L18 26L18 24L16 24L16 23L15 23L15 24L16 24L16 25L15 25L15 27L14 27L14 28L16 28L16 30L18 30L18 31L20 31L20 29L21 29L21 28L22 28L22 27L23 27L23 29L24 29L24 30L26 30L26 29L24 29L24 27L23 27L23 26L24 26L24 24L26 24L26 23L24 23L24 22L23 22L23 23L22 23L22 22L21 22L21 20ZM6 23L6 24L7 24L7 23ZM23 23L23 24L22 24L22 25L20 25L20 27L18 27L18 26L17 26L17 25L16 25L16 26L17 26L17 27L18 27L18 28L21 28L21 26L22 26L22 25L23 25L23 24L24 24L24 23ZM25 25L25 28L28 28L28 25ZM29 25L29 27L30 27L30 29L32 29L32 27L31 27L31 26L30 26L30 25ZM26 26L26 27L27 27L27 26ZM15 31L15 32L16 32L16 31ZM0 0L7 0L7 7L0 7ZM1 1L1 6L6 6L6 1ZM2 2L5 2L5 5L2 5ZM26 0L33 0L33 7L26 7ZM27 1L27 6L32 6L32 1ZM28 2L31 2L31 5L28 5ZM0 26L7 26L7 33L0 33ZM1 27L1 32L6 32L6 27ZM2 28L5 28L5 31L2 31Z" fill="#000000"/></g></g></svg>
