<?xml version="1.0" encoding="UTF-8"?>
<svg xmlns="http://www.w3.org/2000/svg" version="1.1" width="500" height="500" viewBox="0 0 500 500"><rect x="0" y="0" width="500" height="500" fill="#ffffff"/><g transform="scale(15.152)"><g transform="translate(0,0)"><path fill-rule="evenodd" d="M9 0L9 1L10 1L10 2L8 2L8 3L9 3L9 4L10 4L10 5L9 5L9 6L8 6L8 8L4 8L4 9L5 9L5 11L4 11L4 10L0 10L0 13L2 13L2 15L3 15L3 16L4 16L4 17L3 17L3 18L2 18L2 16L1 16L1 15L0 15L0 16L1 16L1 17L0 17L0 21L1 21L1 22L0 22L0 23L1 23L1 24L0 24L0 25L1 25L1 24L3 24L3 23L4 23L4 25L8 25L8 29L10 29L10 27L11 27L11 28L12 28L12 29L11 29L11 30L8 30L8 33L10 33L10 32L11 32L11 33L12 33L12 32L14 32L14 33L15 33L15 31L16 31L16 29L17 29L17 33L19 33L19 31L20 31L20 33L21 33L21 31L22 31L22 30L23 30L23 31L24 31L24 32L23 32L23 33L24 33L24 32L25 32L25 29L28 29L28 30L26 30L26 31L28 31L28 32L27 32L27 33L30 33L30 32L29 32L29 31L30 31L30 30L29 30L29 29L30 29L30 28L33 28L33 26L32 26L32 25L33 25L33 19L30 19L30 14L29 14L29 17L28 17L28 18L29 18L29 20L31 20L31 21L32 21L32 22L31 22L31 23L30 23L30 24L27 24L27 23L28 23L28 22L24 22L24 21L23 21L23 19L25 19L25 20L26 20L26 21L28 21L28 19L27 19L27 18L25 18L25 17L26 17L26 16L27 16L27 14L28 14L28 13L29 13L29 12L30 12L30 13L31 13L31 15L32 15L32 16L31 16L31 18L32 18L32 17L33 17L33 14L32 14L32 13L33 13L33 10L32 10L32 9L31 9L31 8L30 8L30 9L31 9L31 11L32 11L32 12L30 12L30 10L29 10L29 9L27 9L27 8L25 8L25 6L24 6L24 5L25 5L25 4L24 4L24 3L25 3L25 2L23 2L23 1L24 1L24 0L22 0L22 2L23 2L23 4L22 4L22 7L21 7L21 5L19 5L19 4L20 4L20 3L21 3L21 0L20 0L20 2L19 2L19 1L18 1L18 2L17 2L17 0L16 0L16 1L14 1L14 0L12 0L12 1L10 1L10 0ZM13 1L13 2L14 2L14 1ZM11 2L11 3L12 3L12 4L11 4L11 5L10 5L10 6L9 6L9 7L10 7L10 6L11 6L11 8L12 8L12 10L10 10L10 8L9 8L9 10L8 10L8 11L5 11L5 12L4 12L4 11L1 11L1 12L2 12L2 13L3 13L3 15L4 15L4 16L5 16L5 17L6 17L6 18L3 18L3 20L5 20L5 21L4 21L4 22L5 22L5 21L6 21L6 22L7 22L7 23L5 23L5 24L8 24L8 25L9 25L9 24L10 24L10 23L11 23L11 24L12 24L12 26L11 26L11 25L10 25L10 26L9 26L9 27L10 27L10 26L11 26L11 27L12 27L12 28L13 28L13 29L14 29L14 30L13 30L13 31L14 31L14 30L15 30L15 29L16 29L16 28L17 28L17 25L18 25L18 23L17 23L17 22L16 22L16 20L17 20L17 17L16 17L16 16L17 16L17 13L18 13L18 14L19 14L19 17L18 17L18 18L19 18L19 17L21 17L21 16L22 16L22 17L23 17L23 18L22 18L22 19L21 19L21 20L20 20L20 19L19 19L19 21L22 21L22 19L23 19L23 18L24 18L24 15L25 15L25 13L26 13L26 14L27 14L27 12L29 12L29 10L27 10L27 12L24 12L24 11L25 11L25 10L26 10L26 9L24 9L24 6L23 6L23 8L21 8L21 9L20 9L20 6L19 6L19 7L18 7L18 4L19 4L19 2L18 2L18 3L16 3L16 2L15 2L15 3L16 3L16 4L15 4L15 5L14 5L14 4L13 4L13 3L12 3L12 2ZM13 5L13 6L12 6L12 8L14 8L14 10L13 10L13 11L14 11L14 10L16 10L16 11L15 11L15 12L16 12L16 11L17 11L17 12L18 12L18 13L19 13L19 11L18 11L18 9L17 9L17 6L16 6L16 8L15 8L15 6L14 6L14 5ZM13 6L13 7L14 7L14 6ZM0 8L0 9L3 9L3 8ZM6 9L6 10L7 10L7 9ZM16 9L16 10L17 10L17 9ZM21 9L21 11L20 11L20 12L21 12L21 13L20 13L20 16L21 16L21 15L22 15L22 16L23 16L23 13L22 13L22 12L21 12L21 11L23 11L23 10L24 10L24 9ZM9 10L9 11L8 11L8 12L6 12L6 13L7 13L7 14L5 14L5 13L4 13L4 15L5 15L5 16L6 16L6 17L7 17L7 18L6 18L6 19L7 19L7 20L6 20L6 21L9 21L9 22L8 22L8 24L9 24L9 23L10 23L10 21L11 21L11 23L12 23L12 24L14 24L14 26L13 26L13 27L14 27L14 26L15 26L15 22L14 22L14 21L13 21L13 20L12 20L12 19L10 19L10 18L9 18L9 16L10 16L10 17L11 17L11 18L12 18L12 16L14 16L14 18L13 18L13 19L14 19L14 18L15 18L15 19L16 19L16 17L15 17L15 14L14 14L14 13L13 13L13 12L12 12L12 11L11 11L11 12L12 12L12 13L11 13L11 15L12 15L12 16L10 16L10 15L9 15L9 16L8 16L8 17L7 17L7 16L6 16L6 15L8 15L8 14L9 14L9 13L8 13L8 12L9 12L9 11L10 11L10 10ZM13 14L13 15L14 15L14 14ZM1 18L1 21L2 21L2 18ZM7 18L7 19L8 19L8 18ZM9 19L9 20L10 20L10 19ZM11 20L11 21L12 21L12 20ZM29 21L29 22L30 22L30 21ZM1 22L1 23L2 23L2 22ZM13 22L13 23L14 23L14 22ZM20 22L20 23L19 23L19 25L20 25L20 24L21 24L21 22ZM22 22L22 23L23 23L23 25L24 25L24 22ZM25 23L25 24L26 24L26 23ZM31 23L31 24L30 24L30 26L29 26L29 28L30 28L30 27L31 27L31 25L32 25L32 23ZM16 24L16 25L17 25L17 24ZM25 25L25 28L28 28L28 25ZM19 26L19 29L18 29L18 30L19 30L19 29L20 29L20 30L21 30L21 28L20 28L20 26ZM22 26L22 28L23 28L23 30L24 30L24 27L23 27L23 26ZM26 26L26 27L27 27L27 26ZM32 30L32 32L31 32L31 33L33 33L33 30ZM11 31L11 32L12 32L12 31ZM0 0L7 0L7 7L0 7ZM1 1L1 6L6 6L6 1ZM2 2L5 2L5 5L2 5ZM26 0L33 0L33 7L26 7ZM27 1L27 6L32 6L32 1ZM28 2L31 2L31 5L28 5ZM0 26L7 26L7 33L0 33ZM1 27L1 32L6 32L6 27ZM2 28L5 28L5 31L2 31Z" fill="#000000"/></g></g></svg>
