<?xml version="1.0" encoding="UTF-8"?>
<svg xmlns="http://www.w3.org/2000/svg" version="1.1" width="500" height="500" viewBox="0 0 500 500"><rect x="0" y="0" width="500" height="500" fill="#ffffff"/><g transform="scale(17.241)"><g transform="translate(0,0)"><path fill-rule="evenodd" d="M9 0L9 1L8 1L8 2L9 2L9 3L8 3L8 4L10 4L10 0ZM11 0L11 1L13 1L13 2L11 2L11 3L12 3L12 5L13 5L13 6L12 6L12 7L11 7L11 5L10 5L10 7L11 7L11 8L6 8L6 9L5 9L5 8L0 8L0 9L5 9L5 10L2 10L2 13L1 13L1 12L0 12L0 14L1 14L1 15L0 15L0 16L1 16L1 17L0 17L0 21L1 21L1 18L2 18L2 19L3 19L3 20L2 20L2 21L3 21L3 20L4 20L4 21L7 21L7 20L8 20L8 18L6 18L6 17L7 17L7 16L6 16L6 15L9 15L9 16L8 16L8 17L9 17L9 18L10 18L10 19L9 19L9 20L14 20L14 21L15 21L15 23L14 23L14 22L13 22L13 21L10 21L10 22L13 22L13 23L11 23L11 24L12 24L12 26L13 26L13 27L10 27L10 29L11 29L11 28L12 28L12 29L14 29L14 28L15 28L15 29L16 29L16 28L20 28L20 29L21 29L21 28L20 28L20 27L18 27L18 26L17 26L17 27L16 27L16 28L15 28L15 27L14 27L14 26L13 26L13 23L14 23L14 25L15 25L15 26L16 26L16 25L20 25L20 26L22 26L22 27L24 27L24 25L25 25L25 23L26 23L26 25L29 25L29 23L27 23L27 22L28 22L28 20L29 20L29 19L28 19L28 18L26 18L26 17L24 17L24 18L25 18L25 19L20 19L20 18L21 18L21 17L22 17L22 18L23 18L23 17L22 17L22 16L25 16L25 15L27 15L27 16L29 16L29 14L28 14L28 13L27 13L27 14L26 14L26 13L24 13L24 14L23 14L23 15L22 15L22 16L21 16L21 15L20 15L20 14L22 14L22 13L19 13L19 16L18 16L18 14L17 14L17 13L18 13L18 11L19 11L19 12L26 12L26 11L27 11L27 10L28 10L28 8L27 8L27 10L26 10L26 8L25 8L25 11L20 11L20 10L21 10L21 9L22 9L22 10L24 10L24 8L23 8L23 9L22 9L22 8L21 8L21 6L20 6L20 5L15 5L15 4L17 4L17 3L15 3L15 2L18 2L18 3L20 3L20 4L21 4L21 2L20 2L20 1L21 1L21 0L18 0L18 1L15 1L15 2L14 2L14 1L13 1L13 0ZM18 1L18 2L19 2L19 1ZM13 3L13 5L14 5L14 4L15 4L15 3ZM8 5L8 7L9 7L9 5ZM13 6L13 7L14 7L14 8L11 8L11 9L10 9L10 11L13 11L13 12L10 12L10 13L12 13L12 14L11 14L11 15L10 15L10 16L9 16L9 17L10 17L10 18L12 18L12 19L13 19L13 18L15 18L15 19L14 19L14 20L16 20L16 21L17 21L17 22L16 22L16 23L15 23L15 24L16 24L16 23L17 23L17 24L18 24L18 23L19 23L19 22L20 22L20 20L19 20L19 17L20 17L20 16L19 16L19 17L18 17L18 16L17 16L17 18L18 18L18 19L16 19L16 18L15 18L15 16L16 16L16 15L17 15L17 14L15 14L15 13L14 13L14 11L13 11L13 10L14 10L14 8L16 8L16 6L15 6L15 7L14 7L14 6ZM17 6L17 7L18 7L18 6ZM19 6L19 7L20 7L20 6ZM18 8L18 9L17 9L17 10L16 10L16 9L15 9L15 10L16 10L16 11L15 11L15 12L16 12L16 11L17 11L17 10L20 10L20 9L21 9L21 8ZM6 9L6 10L5 10L5 12L4 12L4 11L3 11L3 12L4 12L4 14L8 14L8 13L9 13L9 12L8 12L8 11L9 11L9 10L8 10L8 11L6 11L6 10L7 10L7 9ZM11 9L11 10L13 10L13 9ZM28 11L28 12L29 12L29 11ZM5 12L5 13L8 13L8 12ZM2 14L2 15L3 15L3 14ZM13 14L13 15L11 15L11 16L10 16L10 17L11 17L11 16L13 16L13 17L12 17L12 18L13 18L13 17L14 17L14 16L13 16L13 15L15 15L15 14ZM24 14L24 15L25 15L25 14ZM4 16L4 18L3 18L3 17L2 17L2 18L3 18L3 19L4 19L4 20L7 20L7 19L4 19L4 18L5 18L5 17L6 17L6 16ZM25 19L25 20L28 20L28 19ZM17 20L17 21L19 21L19 20ZM8 21L8 23L9 23L9 24L8 24L8 29L9 29L9 26L10 26L10 25L9 25L9 24L10 24L10 23L9 23L9 21ZM21 21L21 24L24 24L24 21ZM25 21L25 22L27 22L27 21ZM17 22L17 23L18 23L18 22ZM22 22L22 23L23 23L23 22ZM26 26L26 27L25 27L25 28L24 28L24 29L27 29L27 27L28 27L28 28L29 28L29 27L28 27L28 26ZM13 27L13 28L14 28L14 27ZM22 28L22 29L23 29L23 28ZM0 0L7 0L7 7L0 7ZM1 1L1 6L6 6L6 1ZM2 2L5 2L5 5L2 5ZM22 0L29 0L29 7L22 7ZM23 1L23 6L28 6L28 1ZM24 2L27 2L27 5L24 5ZM0 22L7 22L7 29L0 29ZM1 23L1 28L6 28L6 23ZM2 24L5 24L5 27L2 27Z" fill="#000000"/></g></g></svg>
