<?xml version="1.0" encoding="UTF-8"?>
<svg xmlns="http://www.w3.org/2000/svg" version="1.1" width="500" height="500" viewBox="0 0 500 500"><rect x="0" y="0" width="500" height="500" fill="#ffffff"/><g transform="scale(20)"><g transform="translate(0,0)"><path fill-rule="evenodd" d="M9 0L9 1L11 1L11 2L9 2L9 3L8 3L8 5L9 5L9 6L8 6L8 7L9 7L9 9L8 9L8 8L5 8L5 9L2 9L2 8L0 8L0 11L1 11L1 13L0 13L0 17L1 17L1 13L2 13L2 15L4 15L4 16L5 16L5 15L7 15L7 16L6 16L6 17L7 17L7 16L8 16L8 20L9 20L9 23L8 23L8 25L9 25L9 23L11 23L11 24L10 24L10 25L13 25L13 24L14 24L14 22L13 22L13 20L14 20L14 21L15 21L15 20L16 20L16 21L17 21L17 23L16 23L16 22L15 22L15 24L16 24L16 25L17 25L17 24L19 24L19 25L21 25L21 22L22 22L22 23L23 23L23 24L24 24L24 25L25 25L25 24L24 24L24 23L25 23L25 21L22 21L22 20L21 20L21 18L22 18L22 16L24 16L24 19L25 19L25 15L23 15L23 14L22 14L22 13L23 13L23 12L22 12L22 11L23 11L23 9L22 9L22 8L20 8L20 9L19 9L19 10L18 10L18 9L16 9L16 8L17 8L17 6L16 6L16 7L15 7L15 4L14 4L14 5L13 5L13 4L12 4L12 2L14 2L14 3L15 3L15 2L16 2L16 4L17 4L17 2L16 2L16 0L15 0L15 1L14 1L14 0L13 0L13 1L12 1L12 0ZM9 3L9 5L10 5L10 3ZM11 4L11 7L10 7L10 6L9 6L9 7L10 7L10 8L11 8L11 10L10 10L10 9L9 9L9 10L8 10L8 9L6 9L6 10L2 10L2 9L1 9L1 10L2 10L2 13L3 13L3 14L4 14L4 15L5 15L5 14L7 14L7 15L8 15L8 14L9 14L9 15L11 15L11 16L9 16L9 18L10 18L10 17L11 17L11 18L12 18L12 20L11 20L11 19L10 19L10 20L11 20L11 21L10 21L10 22L11 22L11 23L12 23L12 24L13 24L13 22L11 22L11 21L12 21L12 20L13 20L13 19L14 19L14 20L15 20L15 19L16 19L16 17L15 17L15 18L14 18L14 16L15 16L15 15L13 15L13 16L12 16L12 12L14 12L14 13L13 13L13 14L14 14L14 13L15 13L15 11L12 11L12 12L11 12L11 14L9 14L9 13L6 13L6 12L10 12L10 11L11 11L11 10L16 10L16 9L15 9L15 8L14 8L14 6L13 6L13 5L12 5L12 4ZM12 6L12 9L14 9L14 8L13 8L13 6ZM20 9L20 10L19 10L19 11L18 11L18 12L16 12L16 14L17 14L17 13L18 13L18 14L19 14L19 15L18 15L18 16L20 16L20 14L19 14L19 13L21 13L21 11L22 11L22 10L21 10L21 9ZM24 9L24 10L25 10L25 9ZM6 10L6 11L4 11L4 12L6 12L6 11L8 11L8 10ZM9 10L9 11L10 11L10 10ZM20 10L20 11L21 11L21 10ZM18 12L18 13L19 13L19 12ZM24 12L24 14L25 14L25 12ZM4 13L4 14L5 14L5 13ZM21 14L21 15L22 15L22 14ZM16 15L16 16L17 16L17 15ZM17 17L17 20L20 20L20 17ZM18 18L18 19L19 19L19 18ZM19 21L19 22L18 22L18 23L20 23L20 22L21 22L21 21ZM23 22L23 23L24 23L24 22ZM0 0L7 0L7 7L0 7ZM1 1L1 6L6 6L6 1ZM2 2L5 2L5 5L2 5ZM18 0L25 0L25 7L18 7ZM19 1L19 6L24 6L24 1ZM20 2L23 2L23 5L20 5ZM0 18L7 18L7 25L0 25ZM1 19L1 24L6 24L6 19ZM2 20L5 20L5 23L2 23Z" fill="#000000"/></g></g></svg>
