<?xml version="1.0" encoding="UTF-8"?>
<svg xmlns="http://www.w3.org/2000/svg" version="1.1" width="500" height="500" viewBox="0 0 500 500"><rect x="0" y="0" width="500" height="500" fill="#ffffff"/><g transform="scale(17.241)"><g transform="translate(0,0)"><path fill-rule="evenodd" d="M9 0L9 1L8 1L8 3L9 3L9 4L8 4L8 8L6 8L6 9L5 9L5 10L4 10L4 8L3 8L3 9L2 9L2 8L0 8L0 13L1 13L1 14L0 14L0 15L2 15L2 16L0 16L0 17L1 17L1 18L0 18L0 19L1 19L1 18L3 18L3 17L2 17L2 16L3 16L3 15L2 15L2 13L1 13L1 12L4 12L4 11L5 11L5 10L6 10L6 11L8 11L8 13L7 13L7 12L5 12L5 13L3 13L3 14L4 14L4 16L5 16L5 17L7 17L7 16L9 16L9 15L10 15L10 16L11 16L11 17L13 17L13 18L12 18L12 19L11 19L11 22L10 22L10 21L9 21L9 20L10 20L10 19L9 19L9 20L8 20L8 18L6 18L6 19L5 19L5 18L4 18L4 20L3 20L3 19L2 19L2 20L3 20L3 21L5 21L5 20L6 20L6 21L7 21L7 20L8 20L8 23L9 23L9 22L10 22L10 23L11 23L11 24L10 24L10 26L9 26L9 25L8 25L8 26L9 26L9 27L8 27L8 29L9 29L9 28L10 28L10 26L11 26L11 27L12 27L12 26L11 26L11 24L12 24L12 23L11 23L11 22L14 22L14 23L15 23L15 22L16 22L16 23L17 23L17 24L18 24L18 22L20 22L20 23L19 23L19 24L20 24L20 25L16 25L16 26L19 26L19 28L22 28L22 29L23 29L23 28L24 28L24 29L25 29L25 27L23 27L23 28L22 28L22 27L20 27L20 26L23 26L23 25L24 25L24 26L25 26L25 24L26 24L26 23L25 23L25 22L26 22L26 21L27 21L27 24L29 24L29 23L28 23L28 21L29 21L29 20L28 20L28 16L29 16L29 15L27 15L27 14L29 14L29 11L28 11L28 8L26 8L26 9L27 9L27 11L26 11L26 13L25 13L25 12L24 12L24 13L25 13L25 16L23 16L23 15L24 15L24 14L21 14L21 13L19 13L19 12L18 12L18 8L16 8L16 9L14 9L14 8L15 8L15 6L16 6L16 7L17 7L17 6L18 6L18 7L19 7L19 8L20 8L20 10L21 10L21 11L20 11L20 12L21 12L21 11L22 11L22 13L23 13L23 11L22 11L22 10L23 10L23 9L24 9L24 10L25 10L25 8L22 8L22 9L21 9L21 6L20 6L20 7L19 7L19 5L21 5L21 0L19 0L19 1L18 1L18 2L17 2L17 0L14 0L14 1L13 1L13 0L12 0L12 1L11 1L11 2L9 2L9 1L10 1L10 0ZM14 1L14 2L13 2L13 3L12 3L12 4L9 4L9 5L10 5L10 6L9 6L9 7L10 7L10 8L8 8L8 9L9 9L9 10L8 10L8 11L9 11L9 14L10 14L10 15L11 15L11 16L12 16L12 14L10 14L10 13L12 13L12 12L13 12L13 11L14 11L14 13L13 13L13 14L14 14L14 15L15 15L15 16L14 16L14 18L15 18L15 20L14 20L14 19L12 19L12 20L14 20L14 21L16 21L16 22L17 22L17 20L18 20L18 21L20 21L20 20L18 20L18 19L17 19L17 18L19 18L19 19L21 19L21 17L22 17L22 18L23 18L23 19L22 19L22 20L27 20L27 21L28 21L28 20L27 20L27 18L26 18L26 17L25 17L25 18L23 18L23 16L22 16L22 15L21 15L21 14L20 14L20 15L19 15L19 14L17 14L17 13L18 13L18 12L17 12L17 13L16 13L16 11L17 11L17 9L16 9L16 11L14 11L14 10L13 10L13 8L14 8L14 5L16 5L16 6L17 6L17 5L19 5L19 3L17 3L17 2L16 2L16 4L14 4L14 2L15 2L15 1ZM19 1L19 2L20 2L20 1ZM13 4L13 5L14 5L14 4ZM16 4L16 5L17 5L17 4ZM11 5L11 6L10 6L10 7L11 7L11 6L12 6L12 8L13 8L13 6L12 6L12 5ZM10 8L10 10L9 10L9 11L11 11L11 10L12 10L12 9L11 9L11 8ZM1 9L1 10L2 10L2 9ZM6 9L6 10L7 10L7 9ZM27 11L27 12L28 12L28 11ZM6 13L6 14L5 14L5 15L6 15L6 16L7 16L7 15L6 15L6 14L7 14L7 13ZM26 13L26 14L27 14L27 13ZM16 14L16 16L18 16L18 15L17 15L17 14ZM26 15L26 16L27 16L27 15ZM19 16L19 18L20 18L20 16ZM15 17L15 18L17 18L17 17ZM25 18L25 19L26 19L26 18ZM6 19L6 20L7 20L7 19ZM0 20L0 21L1 21L1 20ZM21 21L21 24L24 24L24 21ZM22 22L22 23L23 23L23 22ZM14 24L14 26L13 26L13 28L12 28L12 29L14 29L14 28L15 28L15 27L14 27L14 26L15 26L15 24ZM28 25L28 28L27 28L27 26L26 26L26 28L27 28L27 29L28 29L28 28L29 28L29 25ZM16 27L16 29L18 29L18 27ZM0 0L7 0L7 7L0 7ZM1 1L1 6L6 6L6 1ZM2 2L5 2L5 5L2 5ZM22 0L29 0L29 7L22 7ZM23 1L23 6L28 6L28 1ZM24 2L27 2L27 5L24 5ZM0 22L7 22L7 29L0 29ZM1 23L1 28L6 28L6 23ZM2 24L5 24L5 27L2 27Z" fill="#000000"/></g></g></svg>
