<?xml version="1.0" encoding="UTF-8"?>
<svg xmlns="http://www.w3.org/2000/svg" version="1.1" width="500" height="500" viewBox="0 0 500 500"><rect x="0" y="0" width="500" height="500" fill="#ffffff"/><g transform="scale(20)"><g transform="translate(0,0)"><path fill-rule="evenodd" d="M10 0L10 1L8 1L8 3L9 3L9 4L8 4L8 8L6 8L6 9L4 9L4 8L3 8L3 9L2 9L2 8L0 8L0 9L1 9L1 11L3 11L3 12L2 12L2 15L1 15L1 14L0 14L0 15L1 15L1 16L0 16L0 17L2 17L2 16L4 16L4 17L5 17L5 16L6 16L6 17L7 17L7 16L6 16L6 15L7 15L7 14L6 14L6 13L7 13L7 12L8 12L8 15L10 15L10 16L12 16L12 15L13 15L13 17L12 17L12 18L13 18L13 19L12 19L12 20L11 20L11 18L10 18L10 17L9 17L9 16L8 16L8 19L9 19L9 21L8 21L8 22L9 22L9 23L8 23L8 25L9 25L9 24L12 24L12 25L14 25L14 24L15 24L15 25L16 25L16 22L17 22L17 21L20 21L20 22L21 22L21 24L20 24L20 23L19 23L19 24L20 24L20 25L21 25L21 24L23 24L23 25L25 25L25 22L24 22L24 23L23 23L23 22L22 22L22 21L24 21L24 20L25 20L25 18L23 18L23 19L22 19L22 18L21 18L21 16L20 16L20 15L22 15L22 14L23 14L23 15L24 15L24 13L25 13L25 11L24 11L24 12L22 12L22 14L21 14L21 13L20 13L20 12L21 12L21 11L23 11L23 10L24 10L24 8L22 8L22 9L23 9L23 10L21 10L21 11L20 11L20 10L18 10L18 9L21 9L21 8L18 8L18 9L16 9L16 10L15 10L15 9L14 9L14 8L15 8L15 6L16 6L16 7L17 7L17 4L16 4L16 2L17 2L17 1L16 1L16 2L15 2L15 1L13 1L13 2L14 2L14 3L12 3L12 7L11 7L11 4L10 4L10 3L9 3L9 2L11 2L11 0ZM14 4L14 5L13 5L13 7L12 7L12 8L14 8L14 6L15 6L15 4ZM9 5L9 8L8 8L8 9L6 9L6 10L3 10L3 11L4 11L4 12L3 12L3 13L4 13L4 14L3 14L3 15L4 15L4 14L5 14L5 13L4 13L4 12L7 12L7 11L11 11L11 8L10 8L10 5ZM9 9L9 10L10 10L10 9ZM6 10L6 11L7 11L7 10ZM13 10L13 11L15 11L15 12L13 12L13 13L12 13L12 14L14 14L14 13L16 13L16 14L15 14L15 16L14 16L14 20L13 20L13 21L11 21L11 20L10 20L10 22L11 22L11 23L13 23L13 24L14 24L14 22L13 22L13 21L14 21L14 20L15 20L15 21L16 21L16 20L15 20L15 19L16 19L16 15L17 15L17 16L18 16L18 13L19 13L19 12L20 12L20 11L19 11L19 12L18 12L18 11L17 11L17 10L16 10L16 11L15 11L15 10ZM16 11L16 13L18 13L18 12L17 12L17 11ZM9 12L9 13L10 13L10 15L11 15L11 13L10 13L10 12ZM19 14L19 15L20 15L20 14ZM24 16L24 17L25 17L25 16ZM17 17L17 20L20 20L20 17ZM18 18L18 19L19 19L19 18ZM21 20L21 21L22 21L22 20ZM17 23L17 24L18 24L18 23ZM0 0L7 0L7 7L0 7ZM1 1L1 6L6 6L6 1ZM2 2L5 2L5 5L2 5ZM18 0L25 0L25 7L18 7ZM19 1L19 6L24 6L24 1ZM20 2L23 2L23 5L20 5ZM0 18L7 18L7 25L0 25ZM1 19L1 24L6 24L6 19ZM2 20L5 20L5 23L2 23Z" fill="#000000"/></g></g></svg>
