<?xml version="1.0" encoding="UTF-8"?>
<svg xmlns="http://www.w3.org/2000/svg" version="1.1" width="500" height="500" viewBox="0 0 500 500"><rect x="0" y="0" width="500" height="500" fill="#ffffff"/><g transform="scale(17.241)"><g transform="translate(0,0)"><path fill-rule="evenodd" d="M9 0L9 1L8 1L8 2L9 2L9 3L8 3L8 4L10 4L10 7L11 7L11 4L12 4L12 5L13 5L13 6L12 6L12 9L13 9L13 8L14 8L14 9L16 9L16 8L17 8L17 9L19 9L19 10L15 10L15 11L14 11L14 12L15 12L15 13L12 13L12 11L13 11L13 10L11 10L11 11L10 11L10 9L11 9L11 8L6 8L6 9L5 9L5 8L0 8L0 12L1 12L1 13L0 13L0 14L1 14L1 15L0 15L0 21L1 21L1 16L3 16L3 18L2 18L2 20L3 20L3 21L4 21L4 20L6 20L6 21L8 21L8 23L9 23L9 24L8 24L8 29L9 29L9 27L10 27L10 28L11 28L11 29L12 29L12 27L13 27L13 26L11 26L11 27L10 27L10 25L11 25L11 21L12 21L12 22L13 22L13 23L12 23L12 25L13 25L13 24L14 24L14 25L16 25L16 26L17 26L17 27L18 27L18 26L19 26L19 25L20 25L20 26L21 26L21 25L22 25L22 27L24 27L24 25L25 25L25 23L26 23L26 25L29 25L29 23L27 23L27 22L28 22L28 20L29 20L29 19L28 19L28 18L29 18L29 17L28 17L28 18L26 18L26 17L25 17L25 19L20 19L20 18L21 18L21 17L22 17L22 18L24 18L24 17L23 17L23 16L25 16L25 15L27 15L27 16L29 16L29 14L28 14L28 13L27 13L27 14L26 14L26 13L25 13L25 12L26 12L26 11L27 11L27 10L28 10L28 8L27 8L27 10L26 10L26 8L25 8L25 9L24 9L24 8L23 8L23 9L22 9L22 8L21 8L21 6L20 6L20 7L19 7L19 6L18 6L18 5L17 5L17 3L20 3L20 5L21 5L21 0L20 0L20 2L18 2L18 1L17 1L17 0L16 0L16 1L17 1L17 3L15 3L15 5L14 5L14 4L12 4L12 2L13 2L13 1L11 1L11 2L10 2L10 0ZM14 0L14 1L15 1L15 0ZM10 3L10 4L11 4L11 3ZM8 5L8 7L9 7L9 5ZM13 6L13 7L14 7L14 8L16 8L16 6L15 6L15 7L14 7L14 6ZM17 6L17 8L19 8L19 9L20 9L20 10L19 10L19 11L20 11L20 10L21 10L21 11L25 11L25 10L24 10L24 9L23 9L23 10L21 10L21 9L20 9L20 8L19 8L19 7L18 7L18 6ZM4 9L4 10L3 10L3 11L4 11L4 12L5 12L5 13L1 13L1 14L3 14L3 16L7 16L7 15L8 15L8 17L6 17L6 18L5 18L5 19L6 19L6 20L8 20L8 21L9 21L9 23L10 23L10 20L9 20L9 19L11 19L11 18L13 18L13 19L12 19L12 21L15 21L15 22L18 22L18 23L17 23L17 24L16 24L16 23L14 23L14 24L16 24L16 25L17 25L17 26L18 26L18 25L17 25L17 24L18 24L18 23L19 23L19 22L20 22L20 20L19 20L19 18L20 18L20 16L19 16L19 15L20 15L20 12L18 12L18 13L17 13L17 14L16 14L16 13L15 13L15 15L14 15L14 16L13 16L13 17L12 17L12 15L13 15L13 14L12 14L12 13L11 13L11 12L10 12L10 13L11 13L11 14L9 14L9 15L8 15L8 13L9 13L9 12L8 12L8 13L6 13L6 12L7 12L7 11L6 11L6 10L9 10L9 9L6 9L6 10L5 10L5 9ZM1 11L1 12L2 12L2 11ZM5 11L5 12L6 12L6 11ZM15 11L15 12L16 12L16 11ZM28 11L28 12L29 12L29 11ZM21 12L21 15L25 15L25 14L24 14L24 13L23 13L23 14L22 14L22 12ZM18 13L18 14L17 14L17 15L18 15L18 14L19 14L19 13ZM6 14L6 15L7 15L7 14ZM9 15L9 16L10 16L10 17L11 17L11 16L10 16L10 15ZM14 16L14 17L15 17L15 19L14 19L14 20L15 20L15 21L16 21L16 20L17 20L17 19L18 19L18 18L17 18L17 17L19 17L19 16ZM8 17L8 18L6 18L6 19L9 19L9 17ZM3 18L3 20L4 20L4 18ZM15 19L15 20L16 20L16 19ZM25 19L25 20L27 20L27 19ZM18 20L18 22L19 22L19 20ZM21 21L21 24L24 24L24 21ZM25 21L25 22L27 22L27 21ZM22 22L22 23L23 23L23 22ZM9 24L9 25L10 25L10 24ZM26 26L26 27L25 27L25 28L24 28L24 29L27 29L27 27L28 27L28 28L29 28L29 27L28 27L28 26ZM14 27L14 28L15 28L15 29L17 29L17 28L15 28L15 27ZM20 27L20 28L19 28L19 29L20 29L20 28L21 28L21 27ZM22 28L22 29L23 29L23 28ZM0 0L7 0L7 7L0 7ZM1 1L1 6L6 6L6 1ZM2 2L5 2L5 5L2 5ZM22 0L29 0L29 7L22 7ZM23 1L23 6L28 6L28 1ZM24 2L27 2L27 5L24 5ZM0 22L7 22L7 29L0 29ZM1 23L1 28L6 28L6 23ZM2 24L5 24L5 27L2 27Z" fill="#000000"/></g></g></svg>
