<?xml version="1.0" encoding="UTF-8"?>
<svg xmlns="http://www.w3.org/2000/svg" version="1.1" width="500" height="500" viewBox="0 0 500 500"><rect x="0" y="0" width="500" height="500" fill="#ffffff"/><g transform="scale(12.195)"><g transform="translate(0,0)"><path fill-rule="evenodd" d="M11 0L11 1L8 1L8 2L11 2L11 3L10 3L10 7L9 7L9 5L8 5L8 7L9 7L9 8L6 8L6 9L10 9L10 10L6 10L6 11L5 11L5 10L4 10L4 9L5 9L5 8L0 8L0 11L1 11L1 12L2 12L2 14L5 14L5 16L4 16L4 15L3 15L3 18L2 18L2 19L1 19L1 17L2 17L2 15L0 15L0 21L3 21L3 20L4 20L4 22L5 22L5 21L7 21L7 22L6 22L6 23L3 23L3 22L2 22L2 23L3 23L3 24L1 24L1 23L0 23L0 27L1 27L1 28L0 28L0 33L1 33L1 30L2 30L2 32L3 32L3 33L5 33L5 32L3 32L3 31L4 31L4 30L5 30L5 31L8 31L8 28L9 28L9 31L10 31L10 30L11 30L11 33L10 33L10 32L6 32L6 33L8 33L8 35L9 35L9 36L8 36L8 41L9 41L9 39L10 39L10 37L11 37L11 36L12 36L12 35L13 35L13 36L14 36L14 37L16 37L16 36L18 36L18 37L19 37L19 40L21 40L21 39L20 39L20 38L22 38L22 39L23 39L23 40L24 40L24 39L23 39L23 38L25 38L25 39L27 39L27 37L28 37L28 38L29 38L29 39L28 39L28 40L26 40L26 41L28 41L28 40L30 40L30 41L35 41L35 40L36 40L36 41L38 41L38 40L36 40L36 39L35 39L35 37L37 37L37 38L38 38L38 39L40 39L40 40L41 40L41 39L40 39L40 38L38 38L38 37L39 37L39 36L37 36L37 35L39 35L39 34L38 34L38 33L41 33L41 31L39 31L39 30L40 30L40 29L39 29L39 30L38 30L38 29L36 29L36 30L35 30L35 28L34 28L34 30L33 30L33 29L31 29L31 28L33 28L33 23L31 23L31 24L32 24L32 27L30 27L30 26L29 26L29 27L28 27L28 28L27 28L27 27L26 27L26 26L24 26L24 25L21 25L21 22L22 22L22 23L23 23L23 24L24 24L24 23L26 23L26 24L25 24L25 25L27 25L27 26L28 26L28 25L29 25L29 23L30 23L30 22L31 22L31 20L32 20L32 21L34 21L34 20L35 20L35 19L33 19L33 18L32 18L32 17L33 17L33 16L32 16L32 14L35 14L35 13L37 13L37 12L38 12L38 11L39 11L39 12L41 12L41 9L40 9L40 8L39 8L39 10L38 10L38 8L37 8L37 9L36 9L36 8L35 8L35 9L34 9L34 8L33 8L33 6L32 6L32 5L33 5L33 4L31 4L31 6L30 6L30 5L29 5L29 6L28 6L28 8L27 8L27 5L28 5L28 3L29 3L29 2L30 2L30 3L33 3L33 0L32 0L32 2L30 2L30 1L25 1L25 0L24 0L24 1L23 1L23 0L20 0L20 1L23 1L23 2L22 2L22 3L21 3L21 2L19 2L19 1L17 1L17 0L13 0L13 1L12 1L12 0ZM12 2L12 3L11 3L11 4L12 4L12 6L11 6L11 7L10 7L10 9L11 9L11 10L10 10L10 11L8 11L8 15L6 15L6 16L9 16L9 14L10 14L10 13L11 13L11 14L14 14L14 13L15 13L15 12L16 12L16 11L15 11L15 10L14 10L14 9L15 9L15 8L14 8L14 6L13 6L13 5L15 5L15 4L14 4L14 3L16 3L16 6L15 6L15 7L16 7L16 10L18 10L18 9L17 9L17 7L18 7L18 6L19 6L19 7L20 7L20 6L21 6L21 8L19 8L19 9L20 9L20 10L21 10L21 12L23 12L23 14L24 14L24 13L25 13L25 14L26 14L26 16L28 16L28 17L27 17L27 19L26 19L26 20L25 20L25 18L26 18L26 17L25 17L25 15L24 15L24 16L21 16L21 17L25 17L25 18L23 18L23 19L22 19L22 18L21 18L21 19L22 19L22 20L21 20L21 21L20 21L20 20L19 20L19 19L20 19L20 16L19 16L19 14L21 14L21 15L22 15L22 14L21 14L21 13L20 13L20 12L19 12L19 11L17 11L17 12L19 12L19 14L18 14L18 13L16 13L16 14L15 14L15 15L14 15L14 16L13 16L13 15L12 15L12 17L11 17L11 15L10 15L10 18L13 18L13 17L14 17L14 18L15 18L15 19L14 19L14 20L13 20L13 19L12 19L12 20L11 20L11 19L10 19L10 20L11 20L11 22L10 22L10 21L9 21L9 20L8 20L8 19L9 19L9 18L8 18L8 19L4 19L4 18L3 18L3 19L2 19L2 20L3 20L3 19L4 19L4 20L8 20L8 21L9 21L9 22L10 22L10 23L8 23L8 22L7 22L7 23L6 23L6 24L7 24L7 23L8 23L8 25L5 25L5 24L4 24L4 26L2 26L2 27L5 27L5 28L4 28L4 29L3 29L3 28L1 28L1 29L3 29L3 30L4 30L4 29L5 29L5 28L8 28L8 27L5 27L5 26L8 26L8 25L10 25L10 26L9 26L9 28L11 28L11 30L14 30L14 29L15 29L15 28L16 28L16 30L15 30L15 31L14 31L14 32L13 32L13 31L12 31L12 33L11 33L11 34L9 34L9 35L10 35L10 36L11 36L11 35L12 35L12 33L15 33L15 34L18 34L18 33L20 33L20 32L22 32L22 33L24 33L24 32L26 32L26 33L25 33L25 34L21 34L21 35L24 35L24 36L20 36L20 35L18 35L18 36L19 36L19 37L22 37L22 38L23 38L23 37L25 37L25 38L26 38L26 37L27 37L27 36L28 36L28 35L29 35L29 36L31 36L31 35L32 35L32 34L31 34L31 33L32 33L32 32L33 32L33 30L32 30L32 32L31 32L31 29L30 29L30 27L29 27L29 28L28 28L28 29L27 29L27 30L28 30L28 29L29 29L29 30L30 30L30 31L29 31L29 32L31 32L31 33L27 33L27 32L28 32L28 31L27 31L27 32L26 32L26 31L24 31L24 30L23 30L23 31L22 31L22 30L21 30L21 29L25 29L25 30L26 30L26 29L25 29L25 27L24 27L24 28L19 28L19 27L18 27L18 28L17 28L17 26L20 26L20 27L22 27L22 26L20 26L20 24L19 24L19 25L18 25L18 23L19 23L19 22L21 22L21 21L22 21L22 20L23 20L23 22L27 22L27 21L26 21L26 20L28 20L28 19L29 19L29 20L31 20L31 19L32 19L32 18L30 18L30 16L31 16L31 17L32 17L32 16L31 16L31 13L33 13L33 12L34 12L34 13L35 13L35 12L34 12L34 11L35 11L35 10L34 10L34 9L33 9L33 10L32 10L32 8L28 8L28 9L27 9L27 11L26 11L26 12L25 12L25 10L26 10L26 6L25 6L25 7L24 7L24 5L27 5L27 4L26 4L26 2L24 2L24 3L23 3L23 7L22 7L22 5L20 5L20 3L19 3L19 2L18 2L18 3L16 3L16 2L14 2L14 3L13 3L13 2ZM27 2L27 3L28 3L28 2ZM8 3L8 4L9 4L9 3ZM12 3L12 4L13 4L13 3ZM18 3L18 5L17 5L17 6L16 6L16 7L17 7L17 6L18 6L18 5L19 5L19 3ZM24 3L24 4L25 4L25 3ZM12 6L12 9L14 9L14 8L13 8L13 6ZM29 6L29 7L30 7L30 6ZM31 6L31 7L32 7L32 6ZM23 7L23 8L24 8L24 7ZM2 9L2 12L3 12L3 13L4 13L4 12L5 12L5 14L7 14L7 13L6 13L6 12L7 12L7 11L6 11L6 12L5 12L5 11L4 11L4 10L3 10L3 9ZM21 9L21 10L22 10L22 11L23 11L23 12L24 12L24 11L23 11L23 10L25 10L25 9L23 9L23 10L22 10L22 9ZM28 9L28 10L29 10L29 13L28 13L28 12L26 12L26 14L27 14L27 13L28 13L28 14L29 14L29 15L30 15L30 14L29 14L29 13L31 13L31 12L33 12L33 11L30 11L30 10L29 10L29 9ZM36 10L36 11L37 11L37 10ZM3 11L3 12L4 12L4 11ZM10 11L10 12L11 12L11 13L13 13L13 12L11 12L11 11ZM14 11L14 12L15 12L15 11ZM0 13L0 14L1 14L1 13ZM39 13L39 14L38 14L38 15L34 15L34 16L35 16L35 17L34 17L34 18L36 18L36 16L37 16L37 19L36 19L36 21L35 21L35 23L34 23L34 24L35 24L35 25L34 25L34 26L36 26L36 24L37 24L37 27L36 27L36 28L37 28L37 27L40 27L40 28L41 28L41 25L39 25L39 23L40 23L40 24L41 24L41 21L40 21L40 22L38 22L38 21L37 21L37 20L38 20L38 19L39 19L39 20L41 20L41 19L39 19L39 18L38 18L38 16L41 16L41 14L40 14L40 13ZM16 14L16 15L17 15L17 16L15 16L15 17L16 17L16 19L15 19L15 20L14 20L14 21L16 21L16 22L13 22L13 21L12 21L12 22L13 22L13 23L12 23L12 24L13 24L13 25L14 25L14 26L15 26L15 25L16 25L16 26L17 26L17 25L16 25L16 24L15 24L15 25L14 25L14 23L18 23L18 22L19 22L19 20L18 20L18 19L19 19L19 18L17 18L17 17L18 17L18 15L17 15L17 14ZM6 17L6 18L7 18L7 17ZM28 17L28 18L29 18L29 19L30 19L30 18L29 18L29 17ZM23 19L23 20L24 20L24 21L25 21L25 20L24 20L24 19ZM16 20L16 21L17 21L17 22L18 22L18 20ZM28 21L28 23L27 23L27 24L28 24L28 23L29 23L29 22L30 22L30 21ZM36 22L36 23L37 23L37 24L38 24L38 22ZM10 23L10 25L11 25L11 26L10 26L10 27L11 27L11 28L12 28L12 29L13 29L13 26L12 26L12 25L11 25L11 23ZM38 25L38 26L39 26L39 25ZM14 27L14 28L15 28L15 27ZM18 28L18 30L16 30L16 31L17 31L17 32L15 32L15 33L18 33L18 32L20 32L20 31L21 31L21 30L19 30L19 28ZM6 29L6 30L7 30L7 29ZM34 30L34 31L35 31L35 30ZM36 30L36 31L37 31L37 30ZM23 31L23 32L24 32L24 31ZM38 31L38 32L37 32L37 33L38 33L38 32L39 32L39 31ZM26 33L26 34L25 34L25 36L27 36L27 33ZM33 33L33 36L36 36L36 33ZM29 34L29 35L30 35L30 34ZM34 34L34 35L35 35L35 34ZM14 35L14 36L16 36L16 35ZM40 35L40 36L41 36L41 35ZM12 37L12 38L13 38L13 39L12 39L12 41L18 41L18 39L17 39L17 38L13 38L13 37ZM29 37L29 38L30 38L30 39L31 39L31 40L32 40L32 39L33 39L33 40L35 40L35 39L33 39L33 38L34 38L34 37L33 37L33 38L32 38L32 37ZM31 38L31 39L32 39L32 38ZM14 39L14 40L17 40L17 39ZM0 0L7 0L7 7L0 7ZM1 1L1 6L6 6L6 1ZM2 2L5 2L5 5L2 5ZM34 0L41 0L41 7L34 7ZM35 1L35 6L40 6L40 1ZM36 2L39 2L39 5L36 5ZM0 34L7 34L7 41L0 41ZM1 35L1 40L6 40L6 35ZM2 36L5 36L5 39L2 39Z" fill="#000000"/></g></g></svg>
