<?xml version="1.0" encoding="UTF-8"?>
<svg xmlns="http://www.w3.org/2000/svg" version="1.1" width="500" height="500" viewBox="0 0 500 500"><rect x="0" y="0" width="500" height="500" fill="#ffffff"/><g transform="scale(20)"><g transform="translate(0,0)"><path fill-rule="evenodd" d="M8 0L8 1L11 1L11 2L10 2L10 3L9 3L9 2L8 2L8 5L9 5L9 6L8 6L8 7L9 7L9 8L8 8L8 10L6 10L6 11L5 11L5 9L4 9L4 8L0 8L0 10L1 10L1 11L0 11L0 13L1 13L1 15L0 15L0 16L1 16L1 15L2 15L2 16L3 16L3 17L5 17L5 16L6 16L6 17L7 17L7 16L6 16L6 15L9 15L9 14L8 14L8 13L10 13L10 15L11 15L11 16L8 16L8 18L9 18L9 19L10 19L10 18L9 18L9 17L13 17L13 18L11 18L11 19L12 19L12 21L11 21L11 20L9 20L9 21L8 21L8 25L9 25L9 23L11 23L11 24L12 24L12 25L13 25L13 23L14 23L14 22L18 22L18 23L17 23L17 25L18 25L18 23L19 23L19 21L20 21L20 22L21 22L21 23L20 23L20 24L21 24L21 23L22 23L22 25L25 25L25 23L24 23L24 22L25 22L25 18L23 18L23 17L24 17L24 16L25 16L25 14L24 14L24 13L25 13L25 8L24 8L24 10L21 10L21 9L23 9L23 8L20 8L20 9L19 9L19 10L21 10L21 12L20 12L20 11L17 11L17 10L18 10L18 8L17 8L17 6L16 6L16 7L15 7L15 5L16 5L16 4L17 4L17 3L16 3L16 2L14 2L14 1L17 1L17 0L14 0L14 1L11 1L11 0ZM10 3L10 6L9 6L9 7L10 7L10 8L9 8L9 9L10 9L10 10L9 10L9 11L8 11L8 12L7 12L7 11L6 11L6 12L7 12L7 13L5 13L5 14L2 14L2 15L4 15L4 16L5 16L5 15L6 15L6 14L7 14L7 13L8 13L8 12L10 12L10 13L11 13L11 14L12 14L12 16L13 16L13 17L15 17L15 19L13 19L13 22L11 22L11 21L9 21L9 22L11 22L11 23L13 23L13 22L14 22L14 21L15 21L15 19L16 19L16 15L15 15L15 16L14 16L14 13L15 13L15 14L16 14L16 13L15 13L15 12L13 12L13 10L14 10L14 11L16 11L16 12L17 12L17 11L16 11L16 10L14 10L14 9L13 9L13 8L12 8L12 5L13 5L13 7L14 7L14 5L15 5L15 4L14 4L14 3L13 3L13 4L12 4L12 3ZM10 6L10 7L11 7L11 6ZM6 8L6 9L7 9L7 8ZM15 8L15 9L17 9L17 8ZM1 9L1 10L2 10L2 11L1 11L1 12L2 12L2 13L3 13L3 12L4 12L4 9ZM11 9L11 10L12 10L12 9ZM2 11L2 12L3 12L3 11ZM11 11L11 12L12 12L12 14L13 14L13 12L12 12L12 11ZM23 11L23 12L22 12L22 15L19 15L19 14L18 14L18 13L17 13L17 14L18 14L18 16L21 16L21 17L23 17L23 12L24 12L24 11ZM20 13L20 14L21 14L21 13ZM17 17L17 20L20 20L20 17ZM18 18L18 19L19 19L19 18ZM21 18L21 22L23 22L23 21L24 21L24 20L23 20L23 19L22 19L22 18ZM22 20L22 21L23 21L23 20ZM15 23L15 24L16 24L16 23ZM0 0L7 0L7 7L0 7ZM1 1L1 6L6 6L6 1ZM2 2L5 2L5 5L2 5ZM18 0L25 0L25 7L18 7ZM19 1L19 6L24 6L24 1ZM20 2L23 2L23 5L20 5ZM0 18L7 18L7 25L0 25ZM1 19L1 24L6 24L6 19ZM2 20L5 20L5 23L2 23Z" fill="#000000"/></g></g></svg>
